<svg width="33" height="33" viewBox="0 0 33 33" fill="none" xmlns="http://www.w3.org/2000/svg">
<circle cx="16.7776" cy="16.5913" r="15.6111" fill="#011C28" stroke="#ECB365"/>
<path d="M15.3484 16.5813L13.6084 18.3213H8.68838V23.5013H6.70838V13.1213L8.44838 11.4213H6.46838V9.68127H13.6084L15.3484 11.4213V16.5813ZM13.3684 16.5813V11.4213H8.68838V18.0813L10.1484 16.5813H13.3684Z" fill="#ECB365"/>
<path d="M27.0867 21.7613L25.3467 23.5013H18.4467V13.1213L20.1867 11.4213H18.2067V9.68127H23.8667L25.6067 11.4213V13.8813L24.3867 15.1013H25.6067L27.0867 16.5813V21.7613ZM23.6267 15.1013V11.4213H20.4267V16.5813L21.8867 15.1013H23.6267ZM25.1067 21.7613V16.5813H20.4267V21.7613H25.1067Z" fill="#ECB365"/>
</svg>
